<?xml version="1.0" encoding="UTF-8" standalone="no" ?>
<!DOCTYPE svg PUBLIC "-//W3C//DTD SVG 1.1//EN" "http://www.w3.org/Graphics/SVG/1.1/DTD/svg11.dtd">
<svg xmlns="http://www.w3.org/2000/svg" xmlns:xlink="http://www.w3.org/1999/xlink" version="1.1" width="500" height="500" viewBox="0 0 500 500" xml:space="preserve">
<desc>Created with Fabric.js 4.6.0</desc>
<defs>
</defs>
<g transform="matrix(1 0 0 1 250 250)" id="lMBcvYoP_ZY0yFpOzAutd"  >
<path style="stroke: none; stroke-width: 1; stroke-dasharray: none; stroke-linecap: butt; stroke-dashoffset: 0; stroke-linejoin: miter; stroke-miterlimit: 4; fill: rgb(0,0,0); fill-rule: nonzero; opacity: 1;" vector-effect="non-scaling-stroke"  transform=" translate(-5.83, -6.42)" d="M 5.4752 0.12288 C 5.68585 -0.04096000000000001 5.98082 -0.04096000000000001 6.19146 0.12288 L 11.44145 4.2062100000000004 C 11.583549999999999 4.316730000000001 11.666649999999999 4.4866600000000005 11.666649999999999 4.666670000000001 L 11.666649999999999 11.08337 C 11.666649999999999 11.54747 11.482249999999999 11.99257 11.15415 12.32077 C 10.825949999999999 12.64897 10.380749999999999 12.833369999999999 9.916649999999999 12.833369999999999 L 7.646019999999998 12.833369999999999 C 7.625419999999998 12.835569999999999 7.604499999999998 12.836699999999999 7.583319999999998 12.836699999999999 C 7.562139999999998 12.836699999999999 7.541219999999998 12.835569999999999 7.520619999999997 12.833369999999999 L 4.146029999999998 12.833369999999999 C 4.125429999999998 12.835569999999999 4.104509999999998 12.836699999999999 4.0833299999999975 12.836699999999999 C 4.062149999999997 12.836699999999999 4.041229999999998 12.835569999999999 4.020629999999997 12.833369999999999 L 1.750009999999997 12.833369999999999 C 1.285879999999997 12.833369999999999 0.840759999999997 12.648969999999998 0.5125699999999969 12.32077 C 0.18437999999999688 11.992569999999999 0.000009999999996845865 11.547469999999999 0.000009999999996845865 11.083369999999999 L 0.000009999999996845865 4.666669999999999 C 0.000009999999996845865 4.486659999999999 0.08311999999999685 4.316729999999999 0.22520999999999686 4.206209999999999 z M 1.16666 4.95197 L 1.16666 11.08337 C 1.16666 11.23807 1.22812 11.386370000000001 1.33752 11.49577 C 1.44692 11.605170000000001 1.59529 11.66667 1.75 11.66667 L 3.49999 11.66667 L 3.49999 6.42 C 3.49999 6.09783 3.76116 5.83667 4.08332 5.83667 L 7.58332 5.83667 C 7.9054899999999995 5.83667 8.16666 6.09783 8.16666 6.42 L 8.16666 11.66667 L 9.91665 11.66667 C 10.07135 11.66667 10.219750000000001 11.60517 10.32915 11.49577 C 10.438550000000001 11.38637 10.49995 11.23807 10.49995 11.08337 L 10.49995 4.95197 L 5.83333 1.32234 z M 6.99999 7.00333 L 4.66666 7.00333 L 4.66666 11.66667 L 6.99999 11.66667 z" stroke-linecap="round" />
</g>
</svg>