<?xml version="1.0" encoding="UTF-8" standalone="no" ?>
<!DOCTYPE svg PUBLIC "-//W3C//DTD SVG 1.1//EN" "http://www.w3.org/Graphics/SVG/1.1/DTD/svg11.dtd">
<svg xmlns="http://www.w3.org/2000/svg" xmlns:xlink="http://www.w3.org/1999/xlink" version="1.1" width="500" height="500" viewBox="0 0 500 500" xml:space="preserve">
<desc>Created with Fabric.js 4.6.0</desc>
<defs>
</defs>
<g transform="matrix(1 0 0 1 259.53 240.49)" id="CSFYWCvW-sMK5uD58sJxp"  >
<path style="stroke: none; stroke-width: 1; stroke-dasharray: none; stroke-linecap: butt; stroke-dashoffset: 0; stroke-linejoin: miter; stroke-miterlimit: 4; fill: rgb(189,189,189); fill-rule: nonzero; opacity: 1;" vector-effect="non-scaling-stroke"  transform=" translate(-9.1, -9.12)" d="M 9.58364 3.85513 C 12.674240000000001 3.85513 14.375240000000002 5.5561799999999995 14.375240000000002 8.646799999999999 L 12.45864 8.646799999999999 C 12.45864 6.631429999999999 11.59894 5.771799999999999 9.58364 5.771799999999999 z M 12.86304 10.98801 L 16.75764 14.53003 C 16.94214 14.69783 17.053939999999997 14.93093 17.069339999999997 15.17983 C 17.084739999999996 15.428730000000002 17.002539999999996 15.67383 16.840139999999998 15.86303 L 15.057639999999997 17.94363 C 14.892139999999998 18.11003 14.670939999999998 18.209329999999998 14.436639999999997 18.22243 C 14.404939999999996 18.224429999999998 14.286139999999998 18.23013 14.092539999999998 18.23013 C 12.768139999999997 18.23013 7.9592199999999975 17.94933 4.1201399999999975 14.111229999999999 C -0.2805300000000024 9.708639999999999 -0.006440000000002222 4.033379999999999 0.007929999999997328 3.793799999999999 C 0.021269999999997326 3.559439999999999 0.12015999999999732 3.338129999999999 0.28584999999999733 3.171839999999999 L 2.3654299999999973 1.388379999999999 C 2.554799999999997 1.226089999999999 2.7999699999999974 1.1440199999999991 3.0488699999999973 1.159589999999999 C 3.2977799999999973 1.175159999999999 3.530809999999997 1.287139999999999 3.6984699999999973 1.471759999999999 L 7.239519999999997 5.365469999999999 C 7.407109999999997 5.54951 7.496529999999997 5.791529999999999 7.488839999999997 6.040329999999999 C 7.481149999999997 6.289129999999999 7.376949999999997 6.525169999999999 7.198309999999997 6.698509999999999 L 4.841769999999997 8.992759999999999 C 4.944309999999997 9.54093 5.290269999999997 10.65355 6.432599999999997 11.796829999999998 C 7.5749299999999975 12.936329999999998 8.684679999999997 13.282229999999998 9.236639999999998 13.387629999999998 L 11.529939999999998 11.029219999999999 C 11.703439999999999 10.850789999999998 11.939439999999998 10.746749999999999 12.188139999999999 10.739059999999998 C 12.436839999999998 10.731379999999998 12.67884 10.82064 12.863039999999998 10.98801 z M 9.56578 1.91666 L 9.56578 0 C 14.48874 0 18.20036 3.70779 18.20036 8.62404 L 16.2837 8.62404 C 16.2837 4.73704 13.45853 1.9166600000000011 9.56578 1.9166600000000011 z" stroke-linecap="round" />
</g>
</svg>