<svg width="0" height="0" class="hidden">
	<symbol xmlns="http://www.w3.org/2000/svg" viewBox="0 0 30 30" id="arrow-right">
		<path fill-rule="evenodd" clip-rule="evenodd" d="M10.3661 6.61612C10.8543 6.12796 11.6457 6.12796 12.1339 6.61612L19.6339 14.1161C20.122 14.6043 20.122 15.3957 19.6339 15.8839L12.1339 23.3839C11.6457 23.872 10.8543 23.872 10.3661 23.3839C9.87796 22.8957 9.87796 22.1043 10.3661 21.6161L16.9822 15L10.3661 8.38388C9.87796 7.89573 9.87796 7.10427 10.3661 6.61612Z"></path>
	</symbol>
	<symbol xmlns="http://www.w3.org/2000/svg" viewBox="0 0 20 20" id="fb">
		<path d="M10.001 0.00195312C4.47895 0.00195312 0.00195312 4.47895 0.00195312 10.001C0.00195312 14.991 3.65795 19.127 8.43895 19.88V12.892H5.89895V10.001H8.43895V7.79795C8.43895 5.28995 9.93195 3.90695 12.215 3.90695C13.309 3.90695 14.455 4.10195 14.455 4.10195V6.56095H13.191C11.951 6.56095 11.563 7.33295 11.563 8.12395V9.99895H14.334L13.891 12.89H11.563V19.878C16.344 19.129 20 14.992 20 10.001C20 4.47895 15.523 0.00195312 10.001 0.00195312Z"></path>
	</symbol>
	<symbol xmlns="http://www.w3.org/2000/svg"
		xmlns:xlink="http://www.w3.org/1999/xlink" version="1.1" xml:space="preserve" viewBox="0 0 500 500" id="home">
		<desc>Created with Fabric.js 4.6.0</desc>
		<defs></defs>
		<g transform="matrix(1 0 0 1 250 250)" id="lMBcvYoP_ZY0yFpOzAutd">
			<path vector-effect="non-scaling-stroke" transform=" translate(-5.83, -6.42)" d="M 5.4752 0.12288 C 5.68585 -0.04096000000000001 5.98082 -0.04096000000000001 6.19146 0.12288 L 11.44145 4.2062100000000004 C 11.583549999999999 4.316730000000001 11.666649999999999 4.4866600000000005 11.666649999999999 4.666670000000001 L 11.666649999999999 11.08337 C 11.666649999999999 11.54747 11.482249999999999 11.99257 11.15415 12.32077 C 10.825949999999999 12.64897 10.380749999999999 12.833369999999999 9.916649999999999 12.833369999999999 L 7.646019999999998 12.833369999999999 C 7.625419999999998 12.835569999999999 7.604499999999998 12.836699999999999 7.583319999999998 12.836699999999999 C 7.562139999999998 12.836699999999999 7.541219999999998 12.835569999999999 7.520619999999997 12.833369999999999 L 4.146029999999998 12.833369999999999 C 4.125429999999998 12.835569999999999 4.104509999999998 12.836699999999999 4.0833299999999975 12.836699999999999 C 4.062149999999997 12.836699999999999 4.041229999999998 12.835569999999999 4.020629999999997 12.833369999999999 L 1.750009999999997 12.833369999999999 C 1.285879999999997 12.833369999999999 0.840759999999997 12.648969999999998 0.5125699999999969 12.32077 C 0.18437999999999688 11.992569999999999 0.000009999999996845865 11.547469999999999 0.000009999999996845865 11.083369999999999 L 0.000009999999996845865 4.666669999999999 C 0.000009999999996845865 4.486659999999999 0.08311999999999685 4.316729999999999 0.22520999999999686 4.206209999999999 z M 1.16666 4.95197 L 1.16666 11.08337 C 1.16666 11.23807 1.22812 11.386370000000001 1.33752 11.49577 C 1.44692 11.605170000000001 1.59529 11.66667 1.75 11.66667 L 3.49999 11.66667 L 3.49999 6.42 C 3.49999 6.09783 3.76116 5.83667 4.08332 5.83667 L 7.58332 5.83667 C 7.9054899999999995 5.83667 8.16666 6.09783 8.16666 6.42 L 8.16666 11.66667 L 9.91665 11.66667 C 10.07135 11.66667 10.219750000000001 11.60517 10.32915 11.49577 C 10.438550000000001 11.38637 10.49995 11.23807 10.49995 11.08337 L 10.49995 4.95197 L 5.83333 1.32234 z M 6.99999 7.00333 L 4.66666 7.00333 L 4.66666 11.66667 L 6.99999 11.66667 z" stroke-linecap="round"></path>
		</g>
	</symbol>
	<symbol xmlns="http://www.w3.org/2000/svg" viewBox="0 0 20 20" id="inst">
		<path d="M10 20C8.64583 20 7.35026 19.7363 6.11328 19.209C4.8763 18.6816 3.81185 17.972 2.91992 17.0801C2.02799 16.1882 1.31836 15.1237 0.791016 13.8867C0.263672 12.6497 0 11.3542 0 10C0 8.64583 0.263672 7.35026 0.791016 6.11328C1.31836 4.8763 2.02799 3.81185 2.91992 2.91992C3.81185 2.02799 4.8763 1.31836 6.11328 0.791016C7.35026 0.263672 8.64583 0 10 0C11.3542 0 12.6497 0.263672 13.8867 0.791016C15.1237 1.31836 16.1882 2.02799 17.0801 2.91992C17.972 3.81185 18.6816 4.8763 19.209 6.11328C19.7363 7.35026 20 8.64583 20 10C20 11.3542 19.7363 12.6497 19.209 13.8867C18.6816 15.1237 17.972 16.1882 17.0801 17.0801C16.1882 17.972 15.1237 18.6816 13.8867 19.209C12.6497 19.7363 11.3542 20 10 20ZM15 6.25C15 5.91146 14.8796 5.61849 14.6387 5.37109C14.3978 5.1237 14.1016 5 13.75 5H6.25C5.91146 5 5.61849 5.1237 5.37109 5.37109C5.1237 5.61849 5 5.91146 5 6.25V7.5H7.22656C7.98177 6.66667 8.90625 6.25 10 6.25C11.0938 6.25 12.0182 6.66667 12.7734 7.5H15V6.25ZM7.5 10C7.5 10.6901 7.74414 11.2793 8.23242 11.7676C8.7207 12.2559 9.3099 12.5 10 12.5C10.6901 12.5 11.2793 12.2559 11.7676 11.7676C12.2559 11.2793 12.5 10.6901 12.5 10C12.5 9.3099 12.2559 8.7207 11.7676 8.23242C11.2793 7.74414 10.6901 7.5 10 7.5C9.3099 7.5 8.7207 7.74414 8.23242 8.23242C7.74414 8.7207 7.5 9.3099 7.5 10ZM15 8.75H13.5156C13.6719 9.17969 13.75 9.59635 13.75 10C13.75 11.0417 13.3854 11.9271 12.6562 12.6562C11.9271 13.3854 11.0417 13.75 10 13.75C8.95833 13.75 8.07292 13.3854 7.34375 12.6562C6.61458 11.9271 6.25 11.0417 6.25 10C6.25 9.59635 6.32812 9.17969 6.48438 8.75H5V13.75C5 14.1016 5.12044 14.3978 5.36133 14.6387C5.60221 14.8796 5.89844 15 6.25 15H13.75C14.1016 15 14.3978 14.8796 14.6387 14.6387C14.8796 14.3978 15 14.1016 15 13.75V8.75Z"></path>
	</symbol>
	<symbol xmlns="http://www.w3.org/2000/svg" viewBox="0 0 18 14" id="mess">
		<path d="M15.6666 0.333252H2.33329C1.41663 0.333252 0.674959 1.08325 0.674959 1.99992L0.666626 11.9999C0.666626 12.9166 1.41663 13.6666 2.33329 13.6666H15.6666C16.5833 13.6666 17.3333 12.9166 17.3333 11.9999V1.99992C17.3333 1.08325 16.5833 0.333252 15.6666 0.333252ZM15.3333 3.87492L9.44163 7.55825C9.17496 7.72492 8.82496 7.72492 8.55829 7.55825L2.66663 3.87492C2.58307 3.82801 2.50989 3.76464 2.45153 3.68863C2.39317 3.61262 2.35084 3.52557 2.32711 3.43273C2.30337 3.33989 2.29871 3.2432 2.31342 3.14851C2.32813 3.05382 2.36191 2.9631 2.41269 2.88184C2.46348 2.80058 2.53023 2.73046 2.6089 2.67575C2.68757 2.62103 2.77652 2.58284 2.87037 2.5635C2.96423 2.54416 3.06103 2.54406 3.15492 2.56321C3.24881 2.58236 3.33785 2.62036 3.41663 2.67492L8.99996 6.16658L14.5833 2.67492C14.6621 2.62036 14.7511 2.58236 14.845 2.56321C14.9389 2.54406 15.0357 2.54416 15.1295 2.5635C15.2234 2.58284 15.3124 2.62103 15.391 2.67575C15.4697 2.73046 15.5364 2.80058 15.5872 2.88184C15.638 2.9631 15.6718 3.05382 15.6865 3.14851C15.7012 3.2432 15.6966 3.33989 15.6728 3.43273C15.6491 3.52557 15.6067 3.61262 15.5484 3.68863C15.49 3.76464 15.4169 3.82801 15.3333 3.87492V3.87492Z"></path>
	</symbol>
	<symbol xmlns="http://www.w3.org/2000/svg" viewBox="0 0 14 14" id="phone-call">
		<g clip-path="url(#clip0_11_296)">
			<path d="M11.6666 13.3583C11.6083 13.3583 11.5499 13.3583 11.4916 13.3583C9.62494 13.125 7.75827 12.4833 6.18327 11.4917C4.72494 10.5583 3.4416 9.275 2.50827 7.81667C1.45827 6.24167 0.816602 4.375 0.641602 2.50833C0.641602 2.04167 0.758268 1.575 1.04993 1.225C1.3416 0.875 1.74993 0.641667 2.2166 0.583333C2.27493 0.583333 2.33327 0.583333 2.3916 0.583333H4.1416C5.0166 0.583333 5.77494 1.225 5.8916 2.1C5.94994 2.625 6.0666 3.15 6.2416 3.61667C6.47494 4.25833 6.29993 4.95833 5.83327 5.48333L5.42494 5.89167C6.12494 6.94167 6.99993 7.875 8.10827 8.575L8.5166 8.16667C8.98327 7.7 9.7416 7.525 10.3833 7.75833C10.8499 7.93333 11.3749 8.05 11.8999 8.10833C12.7749 8.225 13.4166 8.98333 13.4166 9.85833V11.6083C13.4166 12.075 13.2416 12.5417 12.8916 12.8333C12.5416 13.125 12.1333 13.3583 11.6666 13.3583ZM4.1416 1.75H2.3916C2.2166 1.75 2.0416 1.86667 1.92493 1.98333C1.8666 2.1 1.80827 2.21667 1.80827 2.39167C1.98327 4.08333 2.5666 5.71667 3.49994 7.175C4.37494 8.51667 5.48327 9.68333 6.82493 10.5C8.28327 11.4333 9.9166 12.0167 11.6083 12.1917C11.8416 12.1917 11.9583 12.1333 12.0749 12.0167C12.1916 11.9 12.2499 11.7833 12.2499 11.6083V9.85833C12.2499 9.56667 12.0166 9.33333 11.7249 9.275C11.1416 9.21667 10.5583 9.04167 9.97494 8.80833C9.7416 8.75 9.50827 8.75 9.33327 8.925L8.57493 9.68333C8.39994 9.85833 8.10827 9.91667 7.87494 9.8C6.29993 8.925 5.0166 7.64167 4.1416 6.06667C4.08327 5.83333 4.1416 5.54167 4.3166 5.36667L5.07493 4.60833C5.1916 4.49167 5.24994 4.2 5.1916 4.025C4.95827 3.44167 4.8416 2.85833 4.72494 2.275C4.72494 1.98333 4.43327 1.75 4.1416 1.75ZM11.0833 5.83333C10.7916 5.83333 10.5583 5.65833 10.4999 5.36667C10.3249 4.43333 9.5666 3.73333 8.63327 3.5C8.3416 3.44167 8.10827 3.15 8.1666 2.8C8.22494 2.50833 8.5166 2.275 8.8666 2.33333C10.2666 2.625 11.3749 3.675 11.6083 5.075C11.6666 5.36667 11.4916 5.71667 11.1416 5.775C11.1416 5.775 11.1416 5.83333 11.0833 5.83333ZM13.4166 5.775C13.1249 5.775 12.8916 5.54167 12.8333 5.25C12.5999 3.09167 10.9083 1.4 8.6916 1.10833C8.39993 1.05 8.1666 0.758333 8.1666 0.466667C8.1666 0.175 8.5166 -0.0583333 8.80827 -0.0583333C11.5499 0.233333 13.6499 2.33333 13.9416 5.075C13.9999 5.36667 13.7666 5.65833 13.4166 5.71667C13.4749 5.775 13.4166 5.775 13.4166 5.775Z"></path>
		</g>
		<defs>
			<clipPath id="clip0_11_296">
				<rect width="14" height="14"></rect>
			</clipPath>
		</defs>
	</symbol>
	<symbol xmlns="http://www.w3.org/2000/svg"
		xmlns:xlink="http://www.w3.org/1999/xlink" version="1.1" xml:space="preserve" viewBox="0 0 500 500" id="phone-foot">
		<desc>Created with Fabric.js 4.6.0</desc>
		<defs></defs>
		<g transform="matrix(1 0 0 1 259.53 240.49)" id="CSFYWCvW-sMK5uD58sJxp">
			<path vector-effect="non-scaling-stroke" transform=" translate(-9.1, -9.12)" d="M 9.58364 3.85513 C 12.674240000000001 3.85513 14.375240000000002 5.5561799999999995 14.375240000000002 8.646799999999999 L 12.45864 8.646799999999999 C 12.45864 6.631429999999999 11.59894 5.771799999999999 9.58364 5.771799999999999 z M 12.86304 10.98801 L 16.75764 14.53003 C 16.94214 14.69783 17.053939999999997 14.93093 17.069339999999997 15.17983 C 17.084739999999996 15.428730000000002 17.002539999999996 15.67383 16.840139999999998 15.86303 L 15.057639999999997 17.94363 C 14.892139999999998 18.11003 14.670939999999998 18.209329999999998 14.436639999999997 18.22243 C 14.404939999999996 18.224429999999998 14.286139999999998 18.23013 14.092539999999998 18.23013 C 12.768139999999997 18.23013 7.9592199999999975 17.94933 4.1201399999999975 14.111229999999999 C -0.2805300000000024 9.708639999999999 -0.006440000000002222 4.033379999999999 0.007929999999997328 3.793799999999999 C 0.021269999999997326 3.559439999999999 0.12015999999999732 3.338129999999999 0.28584999999999733 3.171839999999999 L 2.3654299999999973 1.388379999999999 C 2.554799999999997 1.226089999999999 2.7999699999999974 1.1440199999999991 3.0488699999999973 1.159589999999999 C 3.2977799999999973 1.175159999999999 3.530809999999997 1.287139999999999 3.6984699999999973 1.471759999999999 L 7.239519999999997 5.365469999999999 C 7.407109999999997 5.54951 7.496529999999997 5.791529999999999 7.488839999999997 6.040329999999999 C 7.481149999999997 6.289129999999999 7.376949999999997 6.525169999999999 7.198309999999997 6.698509999999999 L 4.841769999999997 8.992759999999999 C 4.944309999999997 9.54093 5.290269999999997 10.65355 6.432599999999997 11.796829999999998 C 7.5749299999999975 12.936329999999998 8.684679999999997 13.282229999999998 9.236639999999998 13.387629999999998 L 11.529939999999998 11.029219999999999 C 11.703439999999999 10.850789999999998 11.939439999999998 10.746749999999999 12.188139999999999 10.739059999999998 C 12.436839999999998 10.731379999999998 12.67884 10.82064 12.863039999999998 10.98801 z M 9.56578 1.91666 L 9.56578 0 C 14.48874 0 18.20036 3.70779 18.20036 8.62404 L 16.2837 8.62404 C 16.2837 4.73704 13.45853 1.9166600000000011 9.56578 1.9166600000000011 z" stroke-linecap="round"></path>
		</g>
	</symbol>
	<symbol xmlns="http://www.w3.org/2000/svg" viewBox="0 0 14 20" id="point">
		<path d="M7 0C3.13 0 0 3.13 0 7C0 11.17 4.42 16.92 6.24 19.11C6.64 19.59 7.37 19.59 7.77 19.11C9.58 16.92 14 11.17 14 7C14 3.13 10.87 0 7 0ZM7 9.5C6.33696 9.5 5.70107 9.23661 5.23223 8.76777C4.76339 8.29893 4.5 7.66304 4.5 7C4.5 6.33696 4.76339 5.70107 5.23223 5.23223C5.70107 4.76339 6.33696 4.5 7 4.5C7.66304 4.5 8.29893 4.76339 8.76777 5.23223C9.23661 5.70107 9.5 6.33696 9.5 7C9.5 7.66304 9.23661 8.29893 8.76777 8.76777C8.29893 9.23661 7.66304 9.5 7 9.5Z"></path>
	</symbol>
	<symbol xmlns="http://www.w3.org/2000/svg" viewBox="0 0 16 16" id="search">
		<path fill-rule="evenodd" clip-rule="evenodd" d="M7.33325 2.66668C4.75592 2.66668 2.66659 4.75601 2.66659 7.33334C2.66659 9.91067 4.75592 12 7.33325 12C9.91058 12 11.9999 9.91067 11.9999 7.33334C11.9999 4.75601 9.91058 2.66668 7.33325 2.66668ZM1.33325 7.33334C1.33325 4.01963 4.01954 1.33334 7.33325 1.33334C10.647 1.33334 13.3333 4.01963 13.3333 7.33334C13.3333 10.6471 10.647 13.3333 7.33325 13.3333C4.01954 13.3333 1.33325 10.6471 1.33325 7.33334Z"></path>
		<path fill-rule="evenodd" clip-rule="evenodd" d="M10.6286 10.6286C10.889 10.3682 11.3111 10.3682 11.5714 10.6286L14.4714 13.5286C14.7318 13.7889 14.7318 14.211 14.4714 14.4714C14.2111 14.7317 13.789 14.7317 13.5286 14.4714L10.6286 11.5714C10.3683 11.311 10.3683 10.8889 10.6286 10.6286Z"></path>
	</symbol>
	<symbol xmlns="http://www.w3.org/2000/svg" viewBox="0 0 8 8" id="star">
		<path fill-rule="evenodd" clip-rule="evenodd" d="M4.00005 0.333328C4.12692 0.333328 4.2428 0.405352 4.29895 0.51912L5.25147 2.44882L7.38159 2.76017C7.50711 2.77851 7.61134 2.86652 7.65047 2.98718C7.68959 3.10785 7.65683 3.24027 7.56596 3.32878L6.02489 4.82978L6.38859 6.95031C6.41004 7.07538 6.35862 7.20177 6.25596 7.27635C6.1533 7.35092 6.0172 7.36075 5.9049 7.30169L4.00005 6.29994L2.0952 7.30169C1.9829 7.36075 1.8468 7.35092 1.74414 7.27635C1.64148 7.20177 1.59006 7.07538 1.61151 6.95031L1.97521 4.82978L0.434139 3.32878C0.343267 3.24027 0.310509 3.10785 0.349635 2.98718C0.388761 2.86652 0.492988 2.77851 0.618508 2.76017L2.74863 2.44882L3.70115 0.51912C3.7573 0.405352 3.87318 0.333328 4.00005 0.333328ZM4.00005 1.41975L3.26895 2.90087C3.22044 2.99915 3.12671 3.06731 3.01826 3.08316L1.38285 3.3222L2.56596 4.47454C2.64459 4.55112 2.68047 4.6615 2.66192 4.76968L2.38278 6.39722L3.8449 5.6283C3.94203 5.57723 4.05807 5.57723 4.1552 5.6283L5.61732 6.39722L5.33818 4.76968C5.31963 4.6615 5.35551 4.55112 5.43414 4.47454L6.61725 3.3222L4.98184 3.08316C4.87339 3.06731 4.77966 2.99915 4.73115 2.90087L4.00005 1.41975Z"></path>
		<path d="M2.33333 5L1 3L3 2.66667L4 1L5 2.66667L7 3.33333L5.66667 4.66667L6 7L4 6L2 7L2.33333 5Z"></path>
	</symbol>
	<symbol xmlns="http://www.w3.org/2000/svg"
		xmlns:xlink="http://www.w3.org/1999/xlink" version="1.1" xml:space="preserve" viewBox="0 0 500 500" id="user">
		<desc>Created with Fabric.js 4.6.0</desc>
		<defs></defs>
		<g transform="matrix(1 0 0 1 250 250)" id="ZKnklX_-5AztdcuvTUq1x">
			<path vector-effect="non-scaling-stroke" transform=" translate(-5.25, -5.83)" d="M 0.85427 7.85763 C 1.40125 7.310650000000001 2.14312 7.00335 2.91667 7.00335 L 7.58333 7.00335 C 8.3569 7.00335 9.098700000000001 7.31065 9.6457 7.85763 C 10.1927 8.40461 10.5 9.14649 10.5 9.91999 L 10.5 11.08669 C 10.5 11.408890000000001 10.2388 11.66999 9.9167 11.66999 C 9.5945 11.66999 9.333300000000001 11.40889 9.333300000000001 11.08669 L 9.333300000000001 9.91999 C 9.333300000000001 9.45589 9.149000000000001 9.01079 8.820800000000002 8.68258 C 8.492600000000001 8.3544 8.047460000000003 8.17002 7.583330000000002 8.17002 L 2.9166700000000017 8.17002 C 2.4525400000000017 8.17002 2.0074200000000015 8.354399999999998 1.6792300000000016 8.68258 C 1.3510400000000016 9.01079 1.1666700000000017 9.45589 1.1666700000000017 9.91999 L 1.1666700000000017 11.08669 C 1.1666700000000017 11.408890000000001 0.9055000000000016 11.66999 0.5833300000000017 11.66999 C 0.2611700000000017 11.66999 1.6653345369377348e-15 11.40889 1.6653345369377348e-15 11.08669 L 1.6653345369377348e-15 9.91999 C 1.6653345369377348e-15 9.14649 0.3072900000000017 8.40461 0.8542700000000016 7.85763 z M 5.25001 1.16667 C 4.28351 1.16667 3.5000099999999996 1.95017 3.5000099999999996 2.91667 C 3.5000099999999996 3.88317 4.28351 4.66667 5.25001 4.66667 C 6.2165099999999995 4.66667 7.00001 3.88317 7.00001 2.91667 C 7.00001 1.95017 6.2165099999999995 1.1666699999999999 5.25001 1.1666699999999999 z M 2.33334 2.91667 C 2.33334 1.30584 3.63918 0 5.25001 0 C 6.86084 0 8.16667 1.30584 8.16667 2.91667 C 8.16667 4.5275 6.86084 5.83334 5.25001 5.83334 C 3.6391799999999996 5.83334 2.3333399999999997 4.5275 2.3333399999999997 2.91667 z" stroke-linecap="round"></path>
		</g>
	</symbol>
	<symbol xmlns="http://www.w3.org/2000/svg" viewBox="0 0 21 21" id="yt">
		<path d="M12.1831 10.3247L9.82477 9.22429C9.61897 9.12874 9.44992 9.23584 9.44992 9.46369V11.5364C9.44992 11.7642 9.61897 11.8713 9.82477 11.7758L12.182 10.6754C12.3889 10.5788 12.3889 10.4213 12.1831 10.3247ZM10.4999 0.420044C4.93282 0.420044 0.419922 4.93294 0.419922 10.5C0.419922 16.0671 4.93282 20.58 10.4999 20.58C16.067 20.58 20.5799 16.0671 20.5799 10.5C20.5799 4.93294 16.067 0.420044 10.4999 0.420044ZM10.4999 14.595C5.34022 14.595 5.24992 14.1299 5.24992 10.5C5.24992 6.87019 5.34022 6.40504 10.4999 6.40504C15.6596 6.40504 15.7499 6.87019 15.7499 10.5C15.7499 14.1299 15.6596 14.595 10.4999 14.595Z"></path>
	</symbol>
	<symbol xmlns="http://www.w3.org/2000/svg" viewBox="0 0 30 30" id="arrow-left">
		<path fill-rule="evenodd" clip-rule="evenodd" d="M19.6339 6.61612C20.122 7.10427 20.122 7.89573 19.6339 8.38388L13.0178 15L19.6339 21.6161C20.122 22.1043 20.122 22.8957 19.6339 23.3839C19.1457 23.872 18.3543 23.872 17.8661 23.3839L10.3661 15.8839C9.87796 15.3957 9.87796 14.6043 10.3661 14.1161L17.8661 6.61612C18.3543 6.12796 19.1457 6.12796 19.6339 6.61612Z"></path>
	</symbol>
</svg>