<?xml version="1.0" encoding="UTF-8" standalone="no" ?>
<!DOCTYPE svg PUBLIC "-//W3C//DTD SVG 1.1//EN" "http://www.w3.org/Graphics/SVG/1.1/DTD/svg11.dtd">
<svg xmlns="http://www.w3.org/2000/svg" xmlns:xlink="http://www.w3.org/1999/xlink" version="1.1" width="500" height="500" viewBox="0 0 500 500" xml:space="preserve">
<desc>Created with Fabric.js 4.6.0</desc>
<defs>
</defs>
<g transform="matrix(1 0 0 1 250 250)" id="ZKnklX_-5AztdcuvTUq1x"  >
<path style="stroke: none; stroke-width: 1; stroke-dasharray: none; stroke-linecap: butt; stroke-dashoffset: 0; stroke-linejoin: miter; stroke-miterlimit: 4; fill: rgb(0,0,0); fill-rule: nonzero; opacity: 1;" vector-effect="non-scaling-stroke"  transform=" translate(-5.25, -5.83)" d="M 0.85427 7.85763 C 1.40125 7.310650000000001 2.14312 7.00335 2.91667 7.00335 L 7.58333 7.00335 C 8.3569 7.00335 9.098700000000001 7.31065 9.6457 7.85763 C 10.1927 8.40461 10.5 9.14649 10.5 9.91999 L 10.5 11.08669 C 10.5 11.408890000000001 10.2388 11.66999 9.9167 11.66999 C 9.5945 11.66999 9.333300000000001 11.40889 9.333300000000001 11.08669 L 9.333300000000001 9.91999 C 9.333300000000001 9.45589 9.149000000000001 9.01079 8.820800000000002 8.68258 C 8.492600000000001 8.3544 8.047460000000003 8.17002 7.583330000000002 8.17002 L 2.9166700000000017 8.17002 C 2.4525400000000017 8.17002 2.0074200000000015 8.354399999999998 1.6792300000000016 8.68258 C 1.3510400000000016 9.01079 1.1666700000000017 9.45589 1.1666700000000017 9.91999 L 1.1666700000000017 11.08669 C 1.1666700000000017 11.408890000000001 0.9055000000000016 11.66999 0.5833300000000017 11.66999 C 0.2611700000000017 11.66999 1.6653345369377348e-15 11.40889 1.6653345369377348e-15 11.08669 L 1.6653345369377348e-15 9.91999 C 1.6653345369377348e-15 9.14649 0.3072900000000017 8.40461 0.8542700000000016 7.85763 z M 5.25001 1.16667 C 4.28351 1.16667 3.5000099999999996 1.95017 3.5000099999999996 2.91667 C 3.5000099999999996 3.88317 4.28351 4.66667 5.25001 4.66667 C 6.2165099999999995 4.66667 7.00001 3.88317 7.00001 2.91667 C 7.00001 1.95017 6.2165099999999995 1.1666699999999999 5.25001 1.1666699999999999 z M 2.33334 2.91667 C 2.33334 1.30584 3.63918 0 5.25001 0 C 6.86084 0 8.16667 1.30584 8.16667 2.91667 C 8.16667 4.5275 6.86084 5.83334 5.25001 5.83334 C 3.6391799999999996 5.83334 2.3333399999999997 4.5275 2.3333399999999997 2.91667 z" stroke-linecap="round" />
</g>
</svg>